<?xml version="1.0" encoding="UTF-8"?>
<!-- Generator: Adobe Illustrator 26.0.3, SVG Export Plug-In . SVG Version: 6.00 Build 0)  -->
<svg width="24px" height="24px" version="1.1" id="Light" xmlns="http://www.w3.org/2000/svg" xmlns:xlink="http://www.w3.org/1999/xlink" x="0px" y="0px" viewBox="0 0 24 24" style="enable-background:new 0 0 24 24;" xml:space="preserve">
<style type="text/css">
	.st0{fill:#A4B1CD;}
</style>
<g>
	<path class="st0" d="M10,17.2c-0.3,0-0.5-0.2-0.5-0.5s0.2-0.5,0.5-0.5h1c0.3,0,0.5,0.2,0.5,0.5s-0.2,0.5-0.5,0.5H10z"/>
	<path class="st0" d="M13,17.2c-0.3,0-0.5-0.2-0.5-0.5s0.2-0.5,0.5-0.5h1c0.3,0,0.5,0.2,0.5,0.5s-0.2,0.5-0.5,0.5H13z"/>
	<path class="st0" d="M5.5,17.7c-0.3,0-0.5-0.2-0.5-0.5v-1.5H3.5c-0.3,0-0.5-0.2-0.5-0.5s0.2-0.5,0.5-0.5H5v-1.5   c0-0.3,0.2-0.5,0.5-0.5S6,13,6,13.2v1.5h1.5C7.8,14.7,8,15,8,15.2s-0.2,0.5-0.5,0.5H6v1.5C6,17.5,5.8,17.7,5.5,17.7z"/>
	<circle class="st0" cx="18.5" cy="13.2" r="0.8"/>
	<circle class="st0" cx="16.5" cy="15.2" r="0.8"/>
	<circle class="st0" cx="18.5" cy="17.2" r="0.8"/>
	<circle class="st0" cx="20.5" cy="15.2" r="0.8"/>
	<path class="st0" d="M18.5,20.7c-1.3,0-2.6-0.5-3.6-1.4c-0.1-0.1-0.2-0.1-0.3-0.1H9.5c-0.1,0-0.2,0-0.3,0.1c-1,0.9-2.3,1.4-3.6,1.4   s-2.6-0.5-3.6-1.4c-1.1-1-1.8-2.3-1.9-3.8s0.4-2.9,1.4-4s2.3-1.8,3.8-1.9c0.1,0,0.2,0,0.4,0c1.3,0,2.6,0.5,3.6,1.4   c0.1,0.1,0.2,0.1,0.3,0.1H10v-0.5c0-0.8,0.7-1.5,1.5-1.5V6.7c0-1.4-1.1-2.5-2.5-2.5H6C5.7,4.2,5.5,4,5.5,3.7S5.7,3.2,6,3.2h3   c1.9,0,3.5,1.6,3.5,3.5v2.5c0.8,0,1.5,0.7,1.5,1.5v0.5h0.5c0.1,0,0.2,0,0.3-0.1c1-0.9,2.3-1.4,3.6-1.4c3,0,5.5,2.5,5.5,5.5   c0,1.3-0.5,2.6-1.4,3.6C21.6,20.1,20.1,20.7,18.5,20.7z M14.5,18.2c0.4,0,0.7,0.1,1,0.4c0.8,0.7,1.9,1.1,3,1.1   c1.3,0,2.5-0.6,3.4-1.5c0.7-0.8,1.1-1.9,1.1-3c0-2.5-2-4.5-4.5-4.5c-1.1,0-2.2,0.4-3,1.1c-0.3,0.2-0.6,0.4-1,0.4H9.5   c-0.4,0-0.7-0.1-1-0.4c-0.8-0.7-1.9-1.1-3-1.1c-0.1,0-0.2,0-0.3,0c-1.2,0.1-2.3,0.6-3.1,1.5c-0.8,0.9-1.2,2.1-1.1,3.3   s0.6,2.3,1.5,3.1c0.8,0.7,1.9,1.1,3,1.1s2.2-0.4,3-1.1c0.3-0.2,0.6-0.4,1-0.4H14.5z M13,11.2v-0.5c0-0.3-0.2-0.5-0.5-0.5h-1   c-0.3,0-0.5,0.2-0.5,0.5v0.5H13z"/>
</g>
</svg>